# xmcd
#
# Track frame offsets: 
#        150
#        26544
#        44717
#        65452
#        87680
#        109037
#        125775
#        143131
#        163803
#        182648
#        204043
#
# Disc length: 2949 seconds
#
# Revision: 1
# Processed by: cddbd v1.5.2PL0 Copyright (c) Steve Scherf et al.
# Submitted via: ExactAudioCopy v0.99pb5
#
DISCID=9f0b830b
DTITLE=Abba - The Album
DYEAR=1977
DGENRE=Classical
TTITLE0=Eagle
TTITLE1=Take a Chance on Me
TTITLE2=One Man - One Woman
TTITLE3=The Name of the Game
TTITLE4=Move On
TTITLE5=Hole in Your Soul
TTITLE6=Thank You For The Music
TTITLE7=I Wonder (Departure)
TTITLE8=I'm a Marionette
TTITLE9=Al Andar
TTITLE10=Gracias por La Musica
EXTD=
EXTT0=
EXTT1=
EXTT2=
EXTT3=
EXTT4=
EXTT5=
EXTT6=
EXTT7=
EXTT8=
EXTT9=
EXTT10=
PLAYORDER=
